<svg id="Layer_1" data-name="Layer 1" xmlns="http://www.w3.org/2000/svg" viewBox="0 0 841.89 595.28"><defs><style>.cls-1{fill:#fff;}</style></defs><path class="cls-1" d="M177.88,381a3,3,0,0,1,1.15-3.75c4.43-3.32,6.11-8.08,6.51-13.4.06-.76.07-1.53.07-2.29q0-40.68,0-81.35a41,41,0,0,0-1.13-8.21,15.53,15.53,0,0,0-7.27-10c-1.67-1.06-1.65-1.09-1.21-3.3h61.26c.61,2.13.63,2.21-1,3.22-4.94,3-7.35,7.61-8.1,13.16a53.62,53.62,0,0,0-.46,7.05c0,25.31.08,50.63-.05,75.94-.08,16.51,5.69,30.6,16.75,42.67,12.09,13.19,26.76,22.53,43.31,29.08a140.15,140.15,0,0,0,38.22,9.47c8,.78,16.07.93,24-1.15,6.87-1.8,13.2-4.63,18.45-9.55,3.66-3.43,6.24-7.46,6.9-12.49a16.06,16.06,0,0,0-.07-5.36A9.47,9.47,0,0,0,360.42,405a11.65,11.65,0,0,0-5.14,8c-.45,2.81.48,5.45,3.76,5.8.12,0,.22.16.32.25a8.9,8.9,0,0,1-8.56,7.83,24.92,24.92,0,0,1-6.78-.74,13.18,13.18,0,0,1-10-14.39c.74-7.81,5.17-13.11,12.21-16a26.77,26.77,0,0,1,22.78,1c7.21,3.58,11,9.82,11.76,17.74,1.09,11-3,20.27-9.92,28.45a51.78,51.78,0,0,1-19.29,13.81c-10.87,4.74-22.34,5.94-34,5.07-11.16-.83-21.22-5-30.62-11-7.19-4.58-13.4-10.32-19.44-16.25-7.42-7.28-14.66-14.76-22.1-22-5.6-5.48-11.29-10.89-17.75-15.38-10.72-7.45-22.33-12.89-35.35-14.85-4-.61-8.13-.75-12.21-1.1C179.31,381.08,178.56,381.07,177.88,381Z"/><path class="cls-1" d="M210.24,216.33a6,6,0,0,1,1.12-3.67c2.66-3.82,6.22-6.08,11-6.1a19.76,19.76,0,0,1,4.13.42c6.34,1.36,10,6.39,9.62,12.87A18.17,18.17,0,0,1,226.86,235a35.09,35.09,0,0,1-16.36,5c-15,.95-28.61-2.84-40.55-12-6.85-5.25-12.13-11.84-14.58-20.27-4.84-16.62-.18-30.51,12.64-41.75,7.55-6.62,16.54-10.56,26.3-12.76a85.36,85.36,0,0,1,18.78-2.06q40,0,80.1,0h2c.57,2.32.61,2.42-.84,3.28-5.35,3.19-7.7,8.17-8.41,14.09a47.81,47.81,0,0,0-.3,5.61q0,38.39,0,76.76a36.27,36.27,0,0,0,1.08,9.27,15.93,15.93,0,0,0,7.32,10c1.33.8,1.89,1.71,1.28,3.36H234.08c-.62-1.89-.62-2.22.65-3,6-3.53,8.14-9.17,8.73-15.68.15-1.65.16-3.32.16-5q0-37.44,0-74.89a35.36,35.36,0,0,0-.89-9.28c-1.94-7.1-7.69-11-15-10.29a30.06,30.06,0,0,0-12,3.93c-13.15,7.59-22.2,18.56-26.13,33.27a47.41,47.41,0,0,0,2.25,31,24.12,24.12,0,0,0,6.62,9.46c3,2.54,6.38,4.17,10.45,3.84a8.91,8.91,0,0,0,7.67-5,11.78,11.78,0,0,0,.14-11,7.24,7.24,0,0,0-5-4.06C211.33,216.65,210.87,216.51,210.24,216.33Z"/><path class="cls-1" d="M507.7,288.77v-2.08c1.56-.47,46.88-.66,51.6-.22a50.56,50.56,0,0,1,.13,6.29c0,2.14,0,4.28,0,6.57,1-.14,1.3-.9,1.8-1.38,12.59-12.39,27.39-15.81,44.19-10.74a28.21,28.21,0,0,1,11.2,6.6,25.84,25.84,0,0,1,8.53,19.62q0,22.26,0,44.53a53.56,53.56,0,0,0,.34,5.8,29.93,29.93,0,0,0,.82,4.07,15.37,15.37,0,0,0,7.27,9.74,2.5,2.5,0,0,1,1.26,3.39H573.64c-.7-1.9-.64-2.21.9-3.18a16.28,16.28,0,0,0,7.73-11.09,34.51,34.51,0,0,0,.82-6.37q.1-22.79,0-45.57a33.66,33.66,0,0,0-.92-6.35,11.65,11.65,0,0,0-1.22-3.08c-3-5.56-8.57-7.64-14.5-5.47a18.81,18.81,0,0,0-6.22,4.08,3,3,0,0,0-.8,2.46c0,5.89,0,11.79,0,17.68v33.7a41,41,0,0,0,1,9.49,15.93,15.93,0,0,0,7.45,10.34,2.45,2.45,0,0,1,1.22,3.38H508c-.58-2-.59-2.31.65-3,5.76-3.38,8-8.77,8.69-15.05a28.37,28.37,0,0,0,.16-2.91c0-17.75,0-35.51-.16-53.26a87.11,87.11,0,0,0-.81-9.1,16.64,16.64,0,0,0-.74-2.81,7.6,7.6,0,0,0-5.41-5.27Z"/><path class="cls-1" d="M567.18,271.35l.25,2.11H506.84l-.3-2.09c1-.16,1.77-.26,2.56-.42,2.87-.58,4.41-2.29,4.39-5.2a11.39,11.39,0,0,0-.74-4.05c-4.13-10.07-8.36-20.09-12.56-30.13a5.83,5.83,0,0,0-.44-.64,8.93,8.93,0,0,0-.9.75c-3.13,3.35-6.26,6.69-9.33,10.08a3.31,3.31,0,0,0-.9,2c0,4.29,0,8.61.39,12.88.56,5.89,3.14,10.76,8.46,13.8,1.29.73,1.12,1.73,1,2.84-1.43.43-58.71.58-61.48.16-.52-2.08-.57-2.15.93-3.06,5-3,7.43-7.7,8.26-13.31a35.94,35.94,0,0,0,.42-5.18q0-38.07,0-76.16c0-4.08-.45-8.16-.75-12.24a19,19,0,0,0-.62-3.05,8.23,8.23,0,0,0-6.57-6.48c-.6-.13-1.18-.33-1.84-.52v-2.22h51.81v83.75c.7-.62,1.06-.89,1.36-1.22,8.55-9.28,17.18-18.51,25.6-27.91a120.1,120.1,0,0,0,8.62-11.19,25.06,25.06,0,0,0,2.88-6,5.72,5.72,0,0,0-.92-6.07c-.91-1-.45-2.22-.45-3.35,1.49-.44,26.46-.56,29.22-.14,0,.57.07,1.17.14,1.77a1.58,1.58,0,0,1-1.14,1.74c-1.33.59-2.64,1.23-3.93,1.9-8.77,4.57-16.28,10.79-23.3,17.66-2.72,2.67-5.36,5.43-8,8.15-.38.38-.7.81-1.26,1.46.86.07,1.44.16,2,.16h13.53c1.84,0,1.84,0,2.54,1.76,6.09,15.11,12.13,30.24,18.29,45.32a51.93,51.93,0,0,0,3.92,7.31,9.44,9.44,0,0,0,7.85,4.77C566,271.14,566.47,271.25,567.18,271.35Z"/><path class="cls-1" d="M431.4,273.47H370.18c-.58-2-.6-2.25.67-3,6-3.54,8.12-9.19,8.72-15.69.13-1.45.13-2.91.13-4.36q0-20.4,0-40.78a30,30,0,0,0-1-8.64c-2.73-9.24-11.49-12.27-19.36-6.7-.28.2-.55.42-.84.61a5.58,5.58,0,0,0-2.59,5.2c.13,16.71.07,33.42.07,50.13a40.29,40.29,0,0,0,.92,9.29,16.06,16.06,0,0,0,7.47,10.57,2.46,2.46,0,0,1,1.28,3.36H304.48c-.55-2-.57-2.26.68-3,5.51-3.26,7.85-8.38,8.57-14.45a40,40,0,0,0,.26-4.77c0-15.74.06-31.49-.07-47.22,0-4.64-.57-9.26-.92-13.89a11.53,11.53,0,0,0-.52-2.22,8.13,8.13,0,0,0-6.25-6l-1.94-.49V179H356v13.15c.68-.61,1.09-.91,1.42-1.27,10.22-11.48,28-16.57,43.63-11.51,7.39,2.38,13.37,6.63,17.33,13.45a24.4,24.4,0,0,1,3.23,10.65c.11,1.59.12,3.18.12,4.78q0,21.21,0,42.43a37.16,37.16,0,0,0,1.06,9.27,16,16,0,0,0,7.39,10.14A2.48,2.48,0,0,1,431.4,273.47Z"/><path class="cls-1" d="M439.12,289.09v-2.27H491v2.55q0,34.44,0,68.88a41.47,41.47,0,0,0,1.36,12.15,21.78,21.78,0,0,0,1.45,3.66,8,8,0,0,0,5.25,4.11c.52.14,1.05.25,1.7.4V381c-.67,0-1.27.12-1.87.12-10.4,0-20.81,0-31.21,0a25,25,0,0,1-5-.48c-6.66-1.37-10.91-5.4-12.86-11.9-.12-.39-.22-.8-.33-1.2l-.31-1.27a12,12,0,0,0-1,1.15c-6.46,9.66-15.77,14.56-27.06,15.88a37,37,0,0,1-23.62-4.91c-9.16-5.43-14.17-13.46-14.22-24.27-.06-13.59,0-27.18-.07-40.78,0-4.64-.43-9.27-.75-13.9a20,20,0,0,0-.83-3.86,8,8,0,0,0-6-5.8l-2.26-.6V287c1.46-.43,48.16-.6,51.77-.16,0,.76.07,1.56.07,2.37q0,30.38,0,60.75a39.08,39.08,0,0,0,.47,6.21,14.59,14.59,0,0,0,3.85,7.71,9.66,9.66,0,0,0,11,2.47,16.57,16.57,0,0,0,7.85-6.87,3.77,3.77,0,0,0,.46-2q-.1-26.12-.29-52.22a58.4,58.4,0,0,0-.74-7.44c-.65-4.6-3-7.65-7.83-8.46A6,6,0,0,1,439.12,289.09Z"/><path class="cls-1" d="M371.62,378.49v2.41a11.72,11.72,0,0,1-1.6.21c-10.68,0-21.36,0-32,0a23.57,23.57,0,0,1-5.35-.7A15.56,15.56,0,0,1,321.12,370c-.12-.32-.21-.66-.32-1s-.22-.64-.42-1.17a5.89,5.89,0,0,0-.67.84c-4.12,7.93-10.78,12.61-19.37,14.36-11.28,2.29-21.7.07-30.65-7.38a24.75,24.75,0,0,1-9.28-20.06,23,23,0,0,1,6.15-15.28c3.74-4.27,8.47-7.11,13.6-9.36A66.31,66.31,0,0,1,300,325.86a113.26,113.26,0,0,1,18.69-.56,7.63,7.63,0,0,0,.82,0,1.83,1.83,0,0,0,.25-.6c0-8,0-16.08-.19-24.12a13.7,13.7,0,0,0-2.57-7.8c-3.71-5.23-9.65-5.38-13.61-.36a13.92,13.92,0,0,0-2.8,6.86c-.62,4.39-.56,8.78,1.52,12.81a71.76,71.76,0,0,0,4.29,6.48,1.67,1.67,0,0,1-.43.28c-4.9,1.8-9.9,3.3-15.14,3.44a33.69,33.69,0,0,1-8.45-.7c-8.75-2-13-9.26-10.81-18a18.6,18.6,0,0,1,7.86-10.89,38.72,38.72,0,0,1,14.84-6.28c16.21-3.22,31.74-1.24,46.37,6.62a43.46,43.46,0,0,1,13.95,12,34.22,34.22,0,0,1,7,19.45c.2,3.6.12,7.21.13,10.82,0,8-.1,16.09.05,24.13.07,3.31.66,6.61,1,9.91a8.76,8.76,0,0,0,.37,1.4C364.43,374.92,366.76,377.94,371.62,378.49Zm-51.78-48.43c-6.12.57-11.17,2.6-15.17,6.81a25.38,25.38,0,0,0-7.06,21.57,14.52,14.52,0,0,0,1.81,5.25c3.05,5.3,9.18,6.72,14.38,3.51a16,16,0,0,0,4.93-5,6.69,6.69,0,0,0,1.13-3.9c-.05-8.67,0-17.34,0-26Z"/><path class="cls-1" d="M603.28,230.93a42.24,42.24,0,0,0,4.76,12.5c4.62,7.91,10.84,14,19.78,16.86a28.53,28.53,0,0,0,7.33,1.27c8.18.34,14.9-4.19,17.9-12,.94-2.44,1.53-5,2.32-7.69h3.21a16.53,16.53,0,0,1,0,1.87c-1.56,12.26-8.22,20.95-18.92,26.69a47.39,47.39,0,0,1-20.12,5.44,67.16,67.16,0,0,1-33.37-6.25c-10.38-5-18.49-12.55-22.39-23.51-6.22-17.48-4.16-34.22,6.86-49.35,6.47-8.86,15.47-14.47,26.06-17.23a73.87,73.87,0,0,1,39.44.63,45.61,45.61,0,0,1,10.7,4.52c8.31,4.89,11.58,12.36,11,21.72-.7,10.78-6.84,17.66-16.18,22.13-8.3,4-17.12,5-26.17,4.21-3.58-.31-7.12-1.09-10.67-1.65C604.38,231.05,604,231,603.28,230.93Zm-.83-3.86a6.39,6.39,0,0,0,.9.34,11.72,11.72,0,0,0,1.45.18A17,17,0,0,0,619,221.9a28.7,28.7,0,0,0,5.3-8.4c3.14-7.39,3.9-15.14,3.24-23.05a21.33,21.33,0,0,0-1.52-6c-1.42-3.59-3.83-4.74-7.63-4.07a14.28,14.28,0,0,0-9.5,6.51,37,37,0,0,0-4.89,11,70.68,70.68,0,0,0-2,25.78C602.09,224.79,602.29,226,602.45,227.07Z"/><path class="cls-1" d="M703.83,378.57c0,.58,0,1.06,0,1.54a7.14,7.14,0,0,1-.19.88H642.36c-.5-2.25-.51-2.28,1.27-3.43a15.73,15.73,0,0,0,7.25-10.24,39.65,39.65,0,0,0,1-7.81q.12-26.92,0-53.86a56.21,56.21,0,0,0-.89-8.46,9.2,9.2,0,0,0-7.64-8c-.27-.07-.53-.17-.79-.26a3.35,3.35,0,0,1-.31-.23v-2.22H694v2.76q0,34.21,0,68.42a40.35,40.35,0,0,0,1,9.49,16.39,16.39,0,0,0,7.53,10.53Z"/><path class="cls-1" d="M672.47,281.75c-6.18.74-13.49-5.21-13.56-13.32A13.71,13.71,0,0,1,672.5,255a13.45,13.45,0,0,1,13.44,13.46C686.11,275.39,679.6,282.51,672.47,281.75Z"/></svg>
